#!OML:ASF F:\VICON\USERDATA\INSTALL\rory3\rory3.ASF
:FULLY-SPECIFIED
:DEGREES
925
root 2.43934 15.7963 5.70468 -366.151 -69.167 368.277
lowerback 10.1306 -0.738528 -4.2444
upperback 0.908121 -1.44704 0.748718
thorax -4.61115 -0.637121 3.37596
lowerneck -10.0573 -6.45377 -14.199
upperneck -24.9059 -7.31724 11.7695
head -4.90781 -3.53168 6.27397
rclavicle 1.98288e-014 -2.38542e-015
rhumerus 51.0796 -5.50677 -46.815
rradius 63.1906
rwrist 3.02531
rhand -48.9505 9.36081
rfingers 7.12502
rthumb -21.5815 -19.4566
lclavicle 1.98288e-014 -2.38542e-015
lhumerus 52.5952 -4.34085 51.8772
lradius 80.6332
lwrist 16.2884
lhand -35.3788 25.4612
lfingers 7.12502
lthumb -8.51031 55.2697
rfemur -27.4461 -14.6525 19.1687
rtibia 69.8428
rfoot -39.6415 -6.3936
rtoes -9.60101
lfemur -28.1504 0.027884 -16.3224
ltibia 63.6332
lfoot -29.5553 -5.87456
ltoes -22.9967
926
root 2.38841 15.8832 5.67805 -366.343 -69.0269 368.496
lowerback 9.95692 -0.570674 -4.28126
upperback 0.618511 -1.23751 0.432948
thorax -4.84266 -0.523081 3.03751
lowerneck -9.45931 -6.46104 -13.5857
upperneck -24.6664 -7.43612 11.5018
head -4.94133 -3.62078 6.08798
rclavicle -3.34952e-014 -1.07344e-014
rhumerus 53.0917 -7.34852 -46.4316
rradius 62.7526
rwrist 2.69769
rhand -49.5186 9.55099
rfingers 7.12502
rthumb -22.127 -19.2028
lclavicle -3.34952e-014 -1.07344e-014
lhumerus 56.341 -3.3947 50.3447
lradius 79.2974
lwrist 16.5977
lhand -36.1305 25.3712
lfingers 7.12502
lthumb -9.23576 55.1489
rfemur -26.6358 -14.3937 19.2407
rtibia 68.4778
rfoot -39.4394 -6.73889
rtoes -9.3454
lfemur -27.1205 -0.388964 -16.2701
ltibia 61.9352
lfoot -29.3241 -6.04705
ltoes -22.0389
927
root 2.33361 15.9913 5.64946 -366.762 -68.8581 368.947
lowerback 9.80053 -0.488465 -4.40046
upperback 0.375071 -1.15233 0.138237
thorax -5.02166 -0.471883 2.78413
lowerneck -9.29005 -6.57902 -13.4266
upperneck -24.2028 -7.58321 11.5568
head -4.80072 -3.7025 6.05428
rclavicle -2.73577e-014 -2.98177e-015
rhumerus 55.2931 -9.00369 -46.2252
rradius 62.0036
rwrist 2.52262
rhand -50.0511 9.26866
rfingers 7.12502
rthumb -22.6382 -19.4237
lclavicle -2.73577e-014 -2.98177e-015
lhumerus 59.8649 -2.26532 48.9497
lradius 77.5416
lwrist 16.54
lhand -36.8993 26.2018
lfingers 7.12502
lthumb -9.97748 55.9453
rfemur -25.6987 -14.1888 19.1937
rtibia 66.9231
rfoot -38.8933 -7.12488
rtoes -9.8812
lfemur -26.0305 -0.890152 -16.2825
ltibia 60.0686
lfoot -28.7349 -6.0526
ltoes -22.1711
928
root 2.27951 16.1222 5.62173 -367 -68.6275 369.143
lowerback 9.75342 -0.457981 -4.48714
upperback 0.263174 -1.13311 -0.0789329
thorax -5.11729 -0.458469 2.60324
lowerneck -9.78428 -6.72119 -13.3627
upperneck -23.4934 -7.67593 11.6977
head -4.48113 -3.74891 6.02852
rclavicle 1.23992e-014 -1.27222e-014
rhumerus 57.7785 -10.6381 -46.3635
rradius 60.9668
rwrist 2.84066
rhand -50.2426 8.86773
rfingers 7.12502
rthumb -22.822 -19.8021
lclavicle 1.23992e-014 -1.27222e-014
lhumerus 63.3715 -0.912253 47.9778
lradius 75.2838
lwrist 15.9275
lhand -36.9115 26.3557
lfingers 7.12502
lthumb -9.98922 56.0987
rfemur -24.605 -13.9643 19.1638
rtibia 65.1961
rfoot -38.0521 -7.19609
rtoes -8.88955
lfemur -24.9089 -1.64161 -16.1835
ltibia 58.1087
lfoot -27.6389 -6.46618
ltoes -21.7244
929
root 2.22323 16.273 5.59245 -367.116 -68.3803 369.188
lowerback 9.73886 -0.395704 -4.62628
upperback 0.324109 -1.06971 -0.173832
thorax -5.04955 -0.428217 2.57272
lowerneck -11.092 -6.99939 -13.4337
upperneck -22.5113 -7.85794 11.8679
head -3.94204 -3.81975 5.98895
rclavicle 1.86361e-015 -3.57812e-015
rhumerus 60.4778 -12.4168 -46.5852
rradius 59.7899
rwrist 3.27027
rhand -49.9262 8.62939
rfingers 7.12502
rthumb -22.5183 -20.0775
lclavicle 1.86361e-015 -3.57812e-015
lhumerus 66.8782 0.58965 47.5748
lradius 72.7246
lwrist 15.1436
lhand -35.8545 25.8114
lfingers 7.12502
lthumb -8.9694 55.6007
rfemur -23.434 -13.7505 19.1735
rtibia 63.3151
rfoot -36.8091 -7.36471
rtoes -8.08877
lfemur -23.7937 -2.50011 -16.0286
ltibia 56.0819
lfoot -26.0267 -6.9932
ltoes -21.6753
930
root 2.1611 16.4413 5.56037 -366.928 -68.1873 368.946
lowerback 9.62803 -0.150409 -4.66421
upperback 0.412205 -0.754 -0.415181
thorax -4.92228 -0.279911 2.29644
lowerneck -12.5971 -7.41833 -12.7386
upperneck -21.4623 -8.31143 11.7435
head -3.37602 -4.05882 5.7088
rclavicle 1.86361e-017 -4.87022e-015
rhumerus 62.6357 -14.5956 -46.9246
rradius 58.5155
rwrist 3.50332
rhand -49.6836 8.36382
rfingers 7.12502
rthumb -22.2854 -20.3712
lclavicle 1.86361e-017 -4.87022e-015
lhumerus 70.6168 1.58497 47.2726
lradius 70.1758
lwrist 14.9911
lhand -34.5829 25.5923
lfingers 7.12502
lthumb -7.7422 55.4306
rfemur -22.2424 -13.6236 19.3143
rtibia 61.3093
rfoot -35.1905 -7.5092
rtoes -8.50877
lfemur -22.7134 -3.14939 -15.7786
ltibia 54.0575
lfoot -24.2084 -7.21541
ltoes -23.555
931
root 2.09696 16.6316 5.52685 -366.698 -67.8853 368.747
lowerback 9.42946 -0.00074348 -4.72014
upperback 0.548205 -0.557814 -0.608702
thorax -4.68426 -0.192803 2.09691
lowerneck -14.6446 -7.85949 -12.1143
upperneck -20.2084 -8.77286 11.5305
head -2.68787 -4.2809 5.38655
rclavicle 7.01524e-014 8.99501e-015
rhumerus 64.9137 -16.5969 -47.3998
rradius 57.2515
rwrist 3.504
rhand -49.6986 7.29936
rfingers 7.12502
rthumb -22.2998 -21.4339
lclavicle 7.01524e-014 8.99501e-015
lhumerus 74.1227 2.77815 47.1373
lradius 67.5948
lwrist 15.2476
lhand -32.774 25.2483
lfingers 7.12502
lthumb -5.99602 55.1434
rfemur -21.112 -13.4358 19.4072
rtibia 59.2649
rfoot -33.393 -7.28567
rtoes -8.2251
lfemur -21.7533 -3.78346 -15.5725
ltibia 52.0511
lfoot -22.0152 -7.47862
ltoes -25.0247
932
root 2.03386 16.8444 5.49386 -366.27 -67.5285 368.407
lowerback 9.20576 -0.414534 -5.03425
upperback -0.389475 -1.12424 -0.189369
thorax -5.48963 -0.417734 2.79067
lowerneck -11.1116 -7.34529 -13.6014
upperneck -21.0623 -8.21575 12.1495
head -3.41819 -3.97413 6.0147
rclavicle 4.25275e-014 -1.15295e-014
rhumerus 66.7887 -15.6952 -47.448
rradius 56.0019
rwrist 2.89673
rhand -49.6954 6.02064
rfingers 7.12502
rthumb -22.2967 -22.713
lclavicle 4.25275e-014 -1.15295e-014
lhumerus 74.4878 3.98604 46.9684
lradius 65.1388
lwrist 15.9655
lhand -30.4388 25.2891
lfingers 7.12502
lthumb -3.74123 55.236
rfemur -20.0839 -13.2267 19.5368
rtibia 57.2201
rfoot -31.2911 -7.12318
rtoes -7.42144
lfemur -20.9487 -4.45517 -15.3087
ltibia 50.0792
lfoot -19.2339 -7.96566
ltoes -25.338
933
root 1.97312 17.0632 5.4617 -365.881 -67.2448 368.095
lowerback 9.09386 -0.3859 -5.18359
upperback -0.670071 -1.10207 -0.176735
thorax -5.72192 -0.389898 2.88565
lowerneck -11.2516 -7.50126 -13.7108
upperneck -20.5915 -8.37237 12.2611
head -3.22129 -4.03917 6.03156
rclavicle -5.71506e-014 3.52843e-015
rhumerus 68.7146 -16.5736 -47.9148
rradius 54.5413
rwrist 2.30359
rhand -49.9312 5.14662
rfingers 7.12502
rthumb -22.5231 -23.5597
lclavicle -5.71506e-014 3.52843e-015
lhumerus 76.5473 4.90902 46.736
lradius 62.9657
lwrist 16.9398
lhand -28.362 25.766
lfingers 7.12502
lthumb -1.73554 55.7387
rfemur -19.1168 -13.0934 19.6466
rtibia 55.2349
rfoot -28.7347 -7.12252
rtoes -6.60699
lfemur -20.1942 -5.05443 -15.0446
ltibia 48.1171
lfoot -16.0718 -8.39295
ltoes -25.7107
934
root 1.91154 17.2944 5.42947 -365.727 -66.9893 367.992
lowerback 9.04246 -0.267653 -5.40385
upperback -0.930854 -0.976075 -0.219714
thorax -5.97784 -0.30913 2.94872
lowerneck -11.6738 -7.70738 -13.634
upperneck -19.9197 -8.59116 12.2533
head -2.9302 -4.1363 5.95745
rclavicle 4.84522e-014 7.47927e-015
rhumerus 70.5251 -17.4862 -48.5517
rradius 53.0495
rwrist 1.53206
rhand -50.1196 4.42251
rfingers 7.12502
rthumb -22.7039 -24.2618
lclavicle 4.84522e-014 7.47927e-015
lhumerus 78.5609 5.56938 46.4781
lradius 60.9593
lwrist 17.8893
lhand -26.4069 26.4498
lfingers 7.12502
lthumb 0.152703 56.4294
rfemur -18.1525 -12.8768 19.6465
rtibia 53.3194
rfoot -25.9582 -7.27929
rtoes -5.80952
lfemur -19.4466 -5.56524 -14.8905
ltibia 46.1471
lfoot -12.531 -8.69899
ltoes -26.6526
935
root 1.84415 17.544 5.39786 -365.56 -66.7496 368.013
lowerback 8.77444 -0.0483405 -5.52876
upperback -1.16295 -0.69959 -0.401931
thorax -6.09793 -0.164643 2.78722
lowerneck -12.219 -8.03972 -13.4104
upperneck -19.2639 -8.97968 12.2444
head -2.61329 -4.3236 5.84559
rclavicle -5.57063e-015 4.5472e-015
rhumerus 72.047 -18.7768 -48.9481
rradius 51.5644
rwrist 0.346768
rhand -50.2177 4.10923
rfingers 7.12502
rthumb -22.798 -24.5635
lclavicle -5.57063e-015 4.5472e-015
lhumerus 80.7098 5.94841 46.211
lradius 59.0469
lwrist 18.987
lhand -24.7291 27.0953
lfingers 7.12502
lthumb 1.77319 57.0677
rfemur -17.4045 -12.5571 19.568
rtibia 51.4673
rfoot -23.0668 -7.55212
rtoes -4.39188
lfemur -18.8744 -6.09365 -14.7591
ltibia 44.1699
lfoot -8.47212 -9.00567
ltoes -27.0037
936
root 1.77874 17.7947 5.36923 -365.293 -66.5437 367.891
lowerback 8.54331 -0.146161 -5.66272
upperback -1.5959 -0.830029 -0.201758
thorax -6.41032 -0.201558 3.09064
lowerneck -11.6448 -8.01135 -14.4131
upperneck -19.1012 -8.86449 12.6412
head -2.59317 -4.22053 6.15159
rclavicle 2.48442e-014 -7.70291e-016
rhumerus 73.8445 -18.9464 -48.9107
rradius 50.0552
rwrist -1.38575
rhand -50.4736 4.28131
rfingers 7.12502
rthumb -23.0436 -24.361
lclavicle 2.48442e-014 -7.70291e-016
lhumerus 81.6682 6.85268 46.0392
lradius 56.993
lwrist 19.8808
lhand -23.3251 27.4796
lfingers 7.12502
lthumb 3.12918 57.4364
rfemur -16.7429 -12.4492 19.4912
rtibia 49.7018
rfoot -19.8688 -8.04428
rtoes -3.34601
lfemur -18.338 -6.68059 -14.5515
ltibia 42.1898
lfoot -3.9327 -9.09006
ltoes -26.9068
937
root 1.71427 18.0387 5.34399 -364.872 -66.3737 367.545
lowerback 8.35981 -0.0105069 -5.45637
upperback -1.85244 -0.633476 -0.346889
thorax -6.5997 -0.105947 2.7938
lowerneck -11.7237 -8.19915 -14.4612
upperneck -18.7667 -9.08546 12.6847
head -2.44694 -4.32006 6.1406
rclavicle 2.51478e-014 -1.33186e-014
rhumerus 75.2175 -19.8773 -49.0021
rradius 48.4181
rwrist -2.94019
rhand -50.6734 5.26138
rfingers 7.12502
rthumb -23.2353 -23.3569
lclavicle 2.51478e-014 -1.33186e-014
lhumerus 83.4669 7.46673 45.504
lradius 54.9284
lwrist 20.8162
lhand -22.3649 28.0734
lfingers 7.12502
lthumb 4.0564 58.0146
rfemur -16.1206 -12.3057 19.4832
rtibia 47.9898
rfoot -16.4372 -9.00222
rtoes -2.95233
lfemur -17.8711 -7.18887 -14.2747
ltibia 40.2553
lfoot 1.05883 -8.69755
ltoes -26.3193
938
root 1.64699 18.2772 5.31734 -364.456 -66.2446 367.2
lowerback 8.16016 0.108247 -5.21915
upperback -2.12851 -0.458838 -0.520491
thorax -6.79665 -0.0240205 2.45256
lowerneck -11.9984 -8.39734 -14.5741
upperneck -18.1696 -9.28266 12.8074
head -2.18717 -4.40156 6.14646
rclavicle -1.97822e-014 -8.05078e-015
rhumerus 76.6333 -20.6076 -49.536
rradius 46.7713
rwrist -3.45099
rhand -50.6927 5.04435
rfingers 7.12502
rthumb -23.2538 -23.5716
lclavicle -1.97822e-014 -8.05078e-015
lhumerus 85.0168 8.17362 44.7678
lradius 53.0785
lwrist 21.5912
lhand -21.9534 28.9264
lfingers 7.12502
lthumb 4.45379 58.8596
rfemur -15.5701 -11.8438 19.4546
rtibia 46.3467
rfoot -13.1561 -10.2832
rtoes -1.81967
lfemur -17.5189 -7.79406 -13.9944
ltibia 38.4362
lfoot 6.51222 -7.25852
ltoes -23.432
